<?xml version="1.0" encoding="utf-8"?>
<svg version="1.0" width="285.000000pt" height="273.000000pt" viewBox="0 0 285.000000 273.000000" preserveAspectRatio="xMidYMid meet" xmlns="http://www.w3.org/2000/svg">
  <g transform="matrix(0.1, 0, 0, -0.1, 31.744186, 312.997681)" fill="#000000" stroke="none">
    <path d="M 74.5 1771.895 L 74.5 1381.895 L 464.5 1381.895 L 854.5 1381.895 L 854.5 1771.895 L 854.5 2161.895 L 464.5 2161.895 L 74.5 2161.895 L 74.5 1771.895 Z M 844.5 1771.895 L 844.5 1391.895 L 464.5 1391.895 L 84.5 1391.895 L 84.5 1771.895 L 84.5 2151.895 L 464.5 2151.895 L 844.5 2151.895 L 844.5 1771.895 Z"/>
    <path d="M 302.5 1998.895 C 313.5 1985.895 312.5 1982.895 295.5 1976.895 C 284.5 1973.895 266.5 1955.895 256.5 1936.895 C 238.5 1907.895 237.5 1900.895 249.5 1884.895 C 257.5 1874.895 264.5 1871.895 264.5 1877.895 C 264.5 1882.895 259.5 1892.895 252.5 1899.895 C 243.5 1908.895 243.5 1911.895 252.5 1911.895 C 259.5 1911.895 264.5 1917.895 264.5 1925.895 C 264.5 1948.895 293.5 1971.895 323.5 1971.895 C 351.5 1971.895 384.5 1945.895 384.5 1923.895 C 384.5 1916.895 389.5 1911.895 396.5 1911.895 C 405.5 1911.895 405.5 1908.895 396.5 1899.895 C 389.5 1892.895 384.5 1883.895 384.5 1877.895 C 384.5 1872.895 390.5 1876.895 398.5 1886.895 C 410.5 1902.895 410.5 1909.895 396.5 1931.895 C 379.5 1957.895 334.5 2004.895 334.5 1995.895 C 334.5 1992.895 324.5 1996.895 312.5 2002.895 C 291.5 2013.895 290.5 2013.895 302.5 1998.895 Z"/>
    <path d="M 469.5 1781.895 C 371.5 1682.895 292.5 1599.895 295.5 1597.895 C 298.5 1594.895 381.5 1672.895 479.5 1771.895 C 577.5 1870.895 656.5 1953.895 653.5 1955.895 C 650.5 1958.895 567.5 1880.895 469.5 1781.895 Z"/>
    <path d="M 276.5 1845.895 C 286.5 1835.895 296.5 1829.895 298.5 1832.895 C 301.5 1835.895 293.5 1843.895 281.5 1850.895 C 260.5 1863.895 260.5 1862.895 276.5 1845.895 Z"/>
    <path d="M 344.5 1840.895 C 325.5 1829.895 316.5 1821.895 325.5 1821.895 C 334.5 1821.895 352.5 1830.895 365.5 1841.895 C 394.5 1864.895 390.5 1864.895 344.5 1840.895 Z"/>
    <path d="M 564.5 1691.895 C 564.5 1686.895 569.5 1681.895 574.5 1681.895 C 580.5 1681.895 584.5 1654.895 584.5 1621.895 C 584.5 1588.895 580.5 1561.895 574.5 1561.895 C 569.5 1561.895 564.5 1557.895 564.5 1551.895 C 564.5 1546.895 575.5 1541.895 589.5 1541.895 C 603.5 1541.895 614.5 1546.895 614.5 1551.895 C 614.5 1557.895 610.5 1561.895 604.5 1561.895 C 599.5 1561.895 594.5 1575.895 594.5 1591.895 C 594.5 1610.895 599.5 1621.895 608.5 1621.895 C 624.5 1621.895 660.5 1571.895 656.5 1554.895 C 654.5 1546.895 664.5 1541.895 679.5 1541.895 C 704.5 1541.895 704.5 1542.895 664.5 1583.895 C 642.5 1606.895 624.5 1628.895 624.5 1632.895 C 624.5 1636.895 641.5 1653.895 661.5 1670.895 L 699.5 1701.895 L 671.5 1701.895 C 655.5 1701.895 644.5 1696.895 644.5 1688.895 C 644.5 1680.895 632.5 1664.895 618.5 1650.895 L 591.5 1626.895 L 597.5 1664.895 C 602.5 1696.895 600.5 1701.895 583.5 1701.895 C 573.5 1701.895 564.5 1697.895 564.5 1691.895 Z"/>
    <path d="M 1444.57 2097.663 C 1444.57 2073.663 1448.57 2059.663 1454.57 2063.663 C 1460.57 2066.663 1464.57 2085.663 1464.57 2104.663 C 1464.57 2123.663 1460.57 2138.663 1454.57 2138.663 C 1449.57 2138.663 1444.57 2120.663 1444.57 2097.663 Z"/>
    <path d="M 914.57 2118.663 C 914.57 2113.663 921.57 2108.663 929.57 2108.663 C 941.57 2108.663 944.57 2092.663 944.57 2023.663 C 944.57 1956.663 941.57 1936.663 929.57 1932.663 C 902.57 1921.663 913.57 1908.663 949.57 1908.663 C 968.57 1908.663 984.57 1913.663 984.57 1918.663 C 984.57 1924.663 980.57 1928.663 974.57 1928.663 C 959.57 1928.663 962.57 2016.663 976.57 2020.663 C 994.57 2026.663 1055.57 1943.663 1048.57 1924.663 C 1043.57 1912.663 1049.57 1908.663 1073.57 1908.663 C 1090.57 1908.663 1104.57 1913.663 1104.57 1918.663 C 1104.57 1924.663 1100.57 1928.663 1095.57 1928.663 C 1090.57 1928.663 1067.57 1953.663 1044.57 1983.663 L 1001.57 2039.663 L 1034.57 2073.663 C 1053.57 2092.663 1074.57 2108.663 1081.57 2108.663 C 1088.57 2108.663 1094.57 2113.663 1094.57 2118.663 C 1094.57 2124.663 1081.57 2128.663 1064.57 2128.663 C 1046.57 2128.663 1034.57 2123.663 1034.57 2115.663 C 1034.57 2108.663 1018.57 2087.663 999.57 2068.663 L 964.57 2034.663 L 964.57 2071.663 C 964.57 2091.663 969.57 2108.663 974.57 2108.663 C 980.57 2108.663 984.57 2113.663 984.57 2118.663 C 984.57 2124.663 968.57 2128.663 949.57 2128.663 C 930.57 2128.663 914.57 2124.663 914.57 2118.663 Z"/>
    <path d="M 1134.57 2118.663 C 1134.57 2113.663 1141.57 2108.663 1149.57 2108.663 C 1161.57 2108.663 1164.57 2091.663 1164.57 2018.663 C 1164.57 1945.663 1161.57 1928.663 1149.57 1928.663 C 1141.57 1928.663 1134.57 1924.663 1134.57 1918.663 C 1134.57 1913.663 1150.57 1908.663 1169.57 1908.663 C 1188.57 1908.663 1204.57 1913.663 1204.57 1918.663 C 1204.57 1924.663 1200.57 1928.663 1194.57 1928.663 C 1188.57 1928.663 1184.57 1965.663 1184.57 2018.663 C 1184.57 2071.663 1188.57 2108.663 1194.57 2108.663 C 1200.57 2108.663 1204.57 2113.663 1204.57 2118.663 C 1204.57 2124.663 1188.57 2128.663 1169.57 2128.663 C 1150.57 2128.663 1134.57 2124.663 1134.57 2118.663 Z"/>
    <path d="M 1234.57 2118.663 C 1234.57 2113.663 1239.57 2108.663 1244.57 2108.663 C 1250.57 2108.663 1254.57 2071.663 1254.57 2018.663 C 1254.57 1965.663 1250.57 1928.663 1244.57 1928.663 C 1239.57 1928.663 1234.57 1924.663 1234.57 1918.663 C 1234.57 1913.663 1252.57 1908.663 1275.57 1908.663 C 1368.57 1908.663 1428.57 1973.663 1405.57 2049.663 C 1388.57 2104.663 1353.57 2128.663 1288.57 2128.663 C 1258.57 2128.663 1234.57 2124.663 1234.57 2118.663 Z M 1352.57 2092.663 C 1408.57 2053.663 1399.57 1968.663 1338.57 1942.663 C 1276.57 1916.663 1274.57 1918.663 1274.57 2018.663 L 1274.57 2108.663 L 1302.57 2108.663 C 1317.57 2108.663 1340.57 2101.663 1352.57 2092.663 Z"/>
    <path d="M 910.488 1683.767 C 910.488 1678.767 915.488 1673.767 920.488 1673.767 C 926.488 1673.767 930.488 1636.767 930.488 1583.767 C 930.488 1530.767 926.488 1493.767 920.488 1493.767 C 915.488 1493.767 910.488 1489.767 910.488 1483.767 C 910.488 1478.767 926.488 1473.767 945.488 1473.767 C 981.488 1473.767 992.488 1486.767 965.488 1497.767 C 956.488 1500.767 950.488 1516.767 950.488 1538.767 L 950.488 1573.767 L 1015.488 1573.767 L 1080.488 1573.767 L 1080.488 1533.767 C 1080.488 1511.767 1076.488 1493.767 1070.488 1493.767 C 1065.488 1493.767 1060.488 1489.767 1060.488 1483.767 C 1060.488 1478.767 1076.488 1473.767 1095.488 1473.767 C 1114.488 1473.767 1130.488 1478.767 1130.488 1483.767 C 1130.488 1489.767 1123.488 1493.767 1115.488 1493.767 C 1103.488 1493.767 1100.488 1510.767 1100.488 1583.767 C 1100.488 1656.767 1103.488 1673.767 1115.488 1673.767 C 1123.488 1673.767 1130.488 1678.767 1130.488 1683.767 C 1130.488 1689.767 1114.488 1693.767 1095.488 1693.767 C 1076.488 1693.767 1060.488 1689.767 1060.488 1683.767 C 1060.488 1678.767 1065.488 1673.767 1070.488 1673.767 C 1076.488 1673.767 1080.488 1655.767 1080.488 1633.767 L 1080.488 1592.767 L 1018.488 1595.767 L 955.488 1598.767 L 952.488 1636.767 C 950.488 1664.767 952.488 1673.767 964.488 1673.767 C 973.488 1673.767 980.488 1678.767 980.488 1683.767 C 980.488 1689.767 964.488 1693.767 945.488 1693.767 C 926.488 1693.767 910.488 1689.767 910.488 1683.767 Z"/>
    <path d="M 1705.488 1644.767 C 1699.488 1633.767 1714.488 1621.767 1724.488 1630.767 C 1733.488 1639.767 1731.488 1653.767 1721.488 1653.767 C 1715.488 1653.767 1709.488 1649.767 1705.488 1644.767 Z"/>
    <path d="M 1511.57 2022.663 C 1495.57 2005.663 1505.57 1971.663 1530.57 1960.663 C 1544.57 1953.663 1552.57 1943.663 1549.57 1938.663 C 1540.57 1924.663 1517.57 1926.663 1511.57 1941.663 C 1509.57 1947.663 1503.57 1950.663 1499.57 1946.663 C 1485.57 1932.663 1503.57 1908.663 1528.57 1908.663 C 1544.57 1908.663 1558.57 1916.663 1565.57 1930.663 C 1575.57 1949.663 1573.57 1955.663 1548.57 1974.663 C 1533.57 1987.663 1523.57 2000.663 1527.57 2004.663 C 1530.57 2008.663 1541.57 2005.663 1550.57 1997.663 C 1564.57 1985.663 1566.57 1986.663 1563.57 2003.663 C 1559.57 2023.663 1525.57 2035.663 1511.57 2022.663 Z"/>
    <path d="M 1175.488 1577.767 C 1156.488 1557.767 1155.488 1509.767 1175.488 1490.767 C 1191.488 1473.767 1300.488 1469.767 1300.488 1484.767 C 1300.488 1489.767 1296.488 1493.767 1290.488 1493.767 C 1285.488 1493.767 1280.488 1515.767 1280.488 1541.767 L 1280.488 1589.767 L 1235.488 1591.767 C 1206.488 1592.767 1186.488 1587.767 1175.488 1577.767 Z M 1244.488 1557.767 C 1253.488 1549.767 1260.488 1538.767 1260.488 1533.767 C 1260.488 1522.767 1231.488 1493.767 1220.488 1493.767 C 1195.488 1493.767 1180.488 1508.767 1180.488 1533.767 C 1180.488 1573.767 1216.488 1586.767 1244.488 1557.767 Z"/>
    <path d="M 1330.488 1582.767 C 1330.488 1577.767 1335.488 1573.767 1340.488 1573.767 C 1346.488 1573.767 1350.488 1540.767 1350.488 1493.767 C 1350.488 1446.767 1346.488 1413.767 1340.488 1413.767 C 1335.488 1413.767 1330.488 1409.767 1330.488 1403.767 C 1330.488 1398.767 1346.488 1393.767 1365.488 1393.767 C 1401.488 1393.767 1412.488 1406.767 1385.488 1417.767 C 1376.488 1420.767 1370.488 1435.767 1370.488 1453.767 C 1370.488 1480.767 1373.488 1483.767 1394.488 1477.767 C 1429.488 1469.767 1455.488 1480.767 1469.488 1509.767 C 1480.488 1535.767 1470.488 1569.767 1447.488 1585.767 C 1432.488 1594.767 1330.488 1592.767 1330.488 1582.767 Z M 1444.488 1557.767 C 1453.488 1549.767 1460.488 1538.767 1460.488 1533.767 C 1460.488 1520.767 1430.488 1493.767 1415.488 1493.767 C 1400.488 1493.767 1370.488 1520.767 1370.488 1533.767 C 1370.488 1546.767 1400.488 1573.767 1415.488 1573.767 C 1422.488 1573.767 1436.488 1566.767 1444.488 1557.767 Z"/>
    <path d="M 1510.488 1582.767 C 1510.488 1577.767 1515.488 1573.767 1520.488 1573.767 C 1526.488 1573.767 1530.488 1540.767 1530.488 1493.767 C 1530.488 1446.767 1526.488 1413.767 1520.488 1413.767 C 1515.488 1413.767 1510.488 1409.767 1510.488 1403.767 C 1510.488 1398.767 1524.488 1393.767 1540.488 1393.767 C 1557.488 1393.767 1570.488 1398.767 1570.488 1403.767 C 1570.488 1409.767 1566.488 1413.767 1560.488 1413.767 C 1555.488 1413.767 1550.488 1429.767 1550.488 1448.767 C 1550.488 1481.767 1552.488 1483.767 1575.488 1477.767 C 1636.488 1462.767 1679.488 1544.767 1628.488 1577.767 C 1603.488 1592.767 1510.488 1596.767 1510.488 1582.767 Z M 1620.488 1558.767 C 1646.488 1526.767 1607.488 1477.767 1573.488 1499.767 C 1538.488 1521.767 1550.488 1573.767 1590.488 1573.767 C 1600.488 1573.767 1613.488 1566.767 1620.488 1558.767 Z"/>
    <path d="M 1680.488 1584.767 C 1680.488 1579.767 1687.488 1573.767 1695.488 1569.767 C 1704.488 1566.767 1710.488 1551.767 1710.488 1533.767 C 1710.488 1515.767 1704.488 1500.767 1695.488 1497.767 C 1668.488 1486.767 1679.488 1473.767 1715.488 1473.767 C 1734.488 1473.767 1750.488 1478.767 1750.488 1483.767 C 1750.488 1489.767 1746.488 1493.767 1740.488 1493.767 C 1735.488 1493.767 1730.488 1516.767 1730.488 1543.767 C 1730.488 1590.767 1728.488 1593.767 1705.488 1593.767 C 1691.488 1593.767 1680.488 1589.767 1680.488 1584.767 Z"/>
    <path d="M 1780.488 1583.767 C 1780.488 1578.767 1785.488 1573.767 1790.488 1573.767 C 1796.488 1573.767 1800.488 1555.767 1800.488 1533.767 C 1800.488 1511.767 1796.488 1493.767 1790.488 1493.767 C 1785.488 1493.767 1780.488 1489.767 1780.488 1483.767 C 1780.488 1478.767 1794.488 1473.767 1810.488 1473.767 C 1827.488 1473.767 1840.488 1478.767 1840.488 1483.767 C 1840.488 1489.767 1835.488 1493.767 1829.488 1493.767 C 1813.488 1493.767 1823.488 1555.767 1841.488 1566.767 C 1869.488 1583.767 1890.488 1567.767 1890.488 1528.767 C 1890.488 1509.767 1886.488 1493.767 1880.488 1493.767 C 1875.488 1493.767 1870.488 1489.767 1870.488 1483.767 C 1870.488 1478.767 1884.488 1473.767 1900.488 1473.767 C 1917.488 1473.767 1930.488 1478.767 1930.488 1483.767 C 1930.488 1489.767 1926.488 1493.767 1921.488 1493.767 C 1915.488 1493.767 1910.488 1514.767 1908.488 1541.767 C 1905.488 1582.767 1902.488 1588.767 1882.488 1591.767 C 1869.488 1593.767 1850.488 1587.767 1839.488 1577.767 C 1822.488 1561.767 1820.488 1561.767 1820.488 1576.767 C 1820.488 1586.767 1812.488 1593.767 1800.488 1593.767 C 1789.488 1593.767 1780.488 1589.767 1780.488 1583.767 Z"/>
    <path d="M 1982.488 1577.767 C 1931.488 1542.767 1974.488 1462.767 2036.488 1477.767 C 2066.488 1485.767 2060.488 1497.767 2027.488 1498.767 C 1995.488 1498.767 1996.488 1516.767 2029.488 1528.767 C 2071.488 1542.767 2076.488 1550.767 2055.488 1573.767 C 2033.488 1597.767 2012.488 1598.767 1982.488 1577.767 Z M 2034.488 1564.767 C 2040.488 1555.767 1990.488 1529.767 1982.488 1537.767 C 1975.488 1545.767 2001.488 1573.767 2016.488 1573.767 C 2023.488 1573.767 2031.488 1569.767 2034.488 1564.767 Z"/>
    <path d="M 2122.488 1581.767 C 2103.488 1562.767 2108.488 1544.767 2135.488 1531.767 C 2161.488 1519.767 2169.488 1493.767 2147.488 1493.767 C 2140.488 1493.767 2128.488 1499.767 2121.488 1506.767 C 2111.488 1516.767 2109.488 1514.767 2112.488 1498.767 C 2114.488 1483.767 2123.488 1478.767 2145.488 1478.767 C 2170.488 1478.767 2176.488 1482.767 2178.488 1505.767 C 2181.488 1528.767 2176.488 1535.767 2154.488 1543.767 C 2133.488 1551.767 2129.488 1556.767 2139.488 1566.767 C 2148.488 1575.767 2153.488 1575.767 2160.488 1563.767 C 2171.488 1545.767 2185.488 1557.767 2177.488 1578.767 C 2170.488 1596.767 2139.488 1598.767 2122.488 1581.767 Z"/>
    <path d="M 2227.488 1587.767 C 2211.488 1570.767 2221.488 1536.767 2246.488 1525.767 C 2260.488 1518.767 2268.488 1508.767 2265.488 1503.767 C 2256.488 1489.767 2233.488 1491.767 2227.488 1506.767 C 2225.488 1512.767 2219.488 1515.767 2215.488 1511.767 C 2211.488 1507.767 2210.488 1497.767 2214.488 1488.767 C 2222.488 1466.767 2269.488 1472.767 2284.488 1496.767 C 2293.488 1511.767 2290.488 1518.767 2268.488 1537.767 C 2252.488 1549.767 2240.488 1562.767 2240.488 1566.767 C 2240.488 1578.767 2268.488 1574.767 2274.488 1561.767 C 2277.488 1554.767 2279.488 1557.767 2277.488 1568.767 C 2275.488 1588.767 2241.488 1601.767 2227.488 1587.767 Z"/>
  </g>
</svg>